<svg width="24" height="24" viewBox="0 0 24 24" fill="none" xmlns="http://www.w3.org/2000/svg">
<path d="M24 5.69599C24 4.15907 23.7921 3.03788 23.6575 2.473C23.3476 1.17216 22.2963 0.915332 21.2021 0.682764C20.9707 0.63357 20.7417 0.708118 20.5841 0.861701C20.4222 1.01938 20.2278 1.18729 20.0022 1.17553C19.6937 1.15945 19.3602 1.15053 19 1.15053C18.6398 1.15053 18.3063 1.15945 17.9978 1.17553C17.7722 1.18729 17.5778 1.01938 17.4159 0.861708C17.2583 0.708127 17.0293 0.63358 16.7979 0.682774C15.7037 0.915341 14.6524 1.17216 14.3425 2.473C14.2079 3.03788 14 4.15907 14 5.69599V7.9285C14 8.70425 14.6289 9.33235 15.4046 9.33235C15.9367 9.33235 16.423 9.03176 16.661 8.55589L17.4601 6.95768C17.5612 6.75536 17.7963 6.6574 18.0167 6.70833C18.2766 6.76839 18.6383 6.83235 19 6.83235C19.3617 6.83235 19.7234 6.76839 19.9833 6.70833C20.2037 6.6574 20.4388 6.75536 20.5399 6.95768L21.339 8.55589C21.577 9.03176 22.0633 9.33235 22.5954 9.33235C23.3711 9.33235 24 8.70425 24 7.9285V5.69599Z" fill="#4E5058"/>
<path d="M10.1805 7.99997H11.5105C11.7828 7.99997 12.0011 8.21904 12.0453 8.48771C12.081 8.70494 12.1373 8.91521 12.212 9.11646C12.3564 9.50498 12.1017 9.99997 11.6873 9.99997H9.84714L9.18047 14H14.1529L14.5244 11.7706C14.5721 11.4849 14.8523 11.3028 15.1411 11.3249C15.2281 11.3315 15.316 11.3349 15.4046 11.3349H16.0344C16.3434 11.3349 16.5784 11.6124 16.5276 11.9171L16.1805 14H20C20.5523 14 21 14.4477 21 15C21 15.5523 20.5523 16 20 16H15.8471L14.9864 21.1644C14.8956 21.7092 14.3804 22.0772 13.8356 21.9864C13.2908 21.8956 12.9228 21.3804 13.0136 20.8356L13.8195 16H8.84714L7.98639 21.1644C7.8956 21.7092 7.38037 22.0772 6.8356 21.9864C6.29083 21.8956 5.92281 21.3804 6.01361 20.8356L6.81955 16H3C2.44772 16 2 15.5523 2 15C2 14.4477 2.44772 14 3 14H7.15288L7.81955 9.99997H4C3.44772 9.99997 3 9.55225 3 8.99997C3 8.44768 3.44772 7.99997 4 7.99997H8.15288L9.01361 2.83563C9.1044 2.29086 9.61963 1.92284 10.1644 2.01363C10.7092 2.10443 11.0772 2.61966 10.9864 3.16443L10.1805 7.99997Z" fill="#4E5058"/>
</svg>
