<svg width="66" height="32" viewBox="0 0 66 32" fill="none" xmlns="http://www.w3.org/2000/svg">
<g clip-path="url(#clip0_1055_12491)">
<path d="M25.0364 7.0733C23.2518 6.26791 21.3381 5.67453 19.3371 5.33468C19.3007 5.32812 19.2643 5.34451 19.2455 5.37729C18.9994 5.80784 18.7268 6.36953 18.5359 6.81101C16.3837 6.49412 14.2426 6.49412 12.1346 6.81101C11.9437 6.35972 11.6612 5.80784 11.4139 5.37729C11.3952 5.3456 11.3588 5.32921 11.3223 5.33468C9.32248 5.67344 7.40874 6.26682 5.62301 7.0733C5.60755 7.07985 5.5943 7.09079 5.58551 7.10499C1.95554 12.4389 0.961143 17.6416 1.44896 22.7799C1.45117 22.805 1.46552 22.8291 1.48538 22.8444C3.88033 24.5742 6.20024 25.6244 8.47708 26.3205C8.51352 26.3314 8.55213 26.3183 8.57531 26.2888C9.1139 25.5654 9.594 24.8027 10.0056 24.0005C10.0299 23.9536 10.0067 23.8978 9.95709 23.8792C9.19557 23.5951 8.47045 23.2487 7.77294 22.8553C7.71776 22.8236 7.71335 22.746 7.7641 22.7088C7.91089 22.6007 8.05771 22.4881 8.19787 22.3745C8.22322 22.3537 8.25856 22.3493 8.28837 22.3624C12.8708 24.4202 17.8317 24.4202 22.36 22.3624C22.3898 22.3482 22.4252 22.3526 22.4516 22.3734C22.5918 22.487 22.7386 22.6007 22.8865 22.7088C22.9373 22.746 22.934 22.8236 22.8788 22.8553C22.1813 23.2563 21.4561 23.5951 20.6935 23.8781C20.6439 23.8967 20.6218 23.9536 20.6461 24.0005C21.0665 24.8015 21.5466 25.5643 22.0753 26.2877C22.0974 26.3183 22.1371 26.3314 22.1735 26.3205C24.4614 25.6244 26.7813 24.5742 29.1763 22.8444C29.1972 22.8291 29.2105 22.8061 29.2127 22.781C29.7965 16.8406 28.2348 11.6805 25.0728 7.10607C25.0651 7.09079 25.0519 7.07985 25.0364 7.0733ZM10.6899 19.6512C9.31033 19.6512 8.17357 18.4055 8.17357 16.8756C8.17357 15.3457 9.28829 14.0999 10.6899 14.0999C12.1026 14.0999 13.2284 15.3566 13.2063 16.8756C13.2063 18.4055 12.0916 19.6512 10.6899 19.6512ZM19.9938 19.6512C18.6142 19.6512 17.4775 18.4055 17.4775 16.8756C17.4775 15.3457 18.5921 14.0999 19.9938 14.0999C21.4065 14.0999 22.5322 15.3566 22.5102 16.8756C22.5102 18.4055 21.4065 19.6512 19.9938 19.6512Z" fill="#5865F2"/>
<path d="M33.316 22.264C34.504 22.264 35.392 21.532 35.392 20.608C35.392 19.684 34.504 18.964 33.316 18.964C32.116 18.964 31.24 19.684 31.24 20.608C31.24 21.532 32.116 22.264 33.316 22.264ZM42.2772 16.696C41.8332 15.244 40.9092 14.572 39.3732 14.572C37.2252 14.572 35.8812 16.252 35.8812 18.4C35.8812 20.656 37.0932 22.264 39.1812 22.264C40.7532 22.264 41.8092 21.628 42.2772 20.14V22H46.0212V13.36H42.2772V16.696ZM41.0292 19.66C40.2612 19.66 39.7572 19.168 39.7572 18.412C39.7572 17.668 40.2612 17.188 41.0412 17.188C41.8212 17.188 42.2892 17.668 42.2892 18.4C42.2892 19.144 41.8092 19.66 41.0292 19.66ZM55.7548 18.292C55.7548 16.084 54.4348 14.572 51.4108 14.572C48.4828 14.572 46.7788 16.132 46.7788 18.34C46.7788 20.656 48.6268 22.264 51.8668 22.264C53.3668 22.264 54.7108 21.904 55.5148 21.436V19.168C54.8428 19.54 54.0268 19.792 52.9468 19.792C51.5788 19.792 50.7868 19.468 50.4148 18.94H55.7548V18.292ZM51.6028 16.816C52.3708 16.816 52.8028 17.152 52.8988 17.692H50.2828C50.3908 17.152 50.8468 16.816 51.6028 16.816ZM60.7351 18.52L59.3911 14.896H55.4671L58.7671 22H62.6791L65.9791 14.896H62.0671L60.7351 18.52Z" fill="white"/>
</g>
<defs>
<clipPath id="clip0_1055_12491">
<rect width="66" height="32" fill="white"/>
</clipPath>
</defs>
</svg>
