<svg width="396" height="58" viewBox="0 0 396 58" fill="none" xmlns="http://www.w3.org/2000/svg">
<path d="M47.6469 11.7593C44.1066 10.1083 40.3755 8.94651 36.5475 8.28613C36.0255 9.2426 35.5467 10.222 35.1244 11.2243C31.0516 10.6092 26.9006 10.6092 22.8253 11.2243C22.3921 10.222 21.916 9.2426 21.3941 8.29747C17.5526 8.95809 13.8214 10.1196 10.2812 11.7709C3.2439 22.3274 1.34475 32.6334 2.29973 42.7795C6.41827 45.8656 11.0237 48.2115 15.9197 49.7146C17.02 48.2115 17.9965 46.6061 18.8304 44.9318C17.2405 44.3284 15.6992 43.5881 14.233 42.6998C14.6231 42.4153 14.9997 42.1307 15.3656 41.8117C23.9901 45.9343 33.9595 45.9343 42.5866 41.8117C42.9526 42.1193 43.3293 42.4153 43.706 42.6998C42.2425 43.5768 40.6983 44.3284 39.1109 44.9318C39.9558 46.6061 40.9217 48.2004 42.0191 49.7033C46.9153 48.2004 51.5207 45.8545 55.6391 42.7684H55.6526C56.7716 31.0162 53.7426 20.8127 47.6469 11.7593ZM20.0356 36.5368C17.3804 36.5368 15.1934 34.0658 15.1934 31.0594C15.1934 28.0531 17.3266 25.582 20.0356 25.582C22.7446 25.582 24.9182 28.0531 24.875 31.0594C24.875 34.0658 22.7311 36.5368 20.0356 36.5368ZM37.9087 36.5368C35.2535 36.5368 33.0664 34.0658 33.0664 31.0594C33.0664 28.0531 35.2106 25.582 37.9087 25.582C40.6041 25.582 42.7911 28.0531 42.7481 31.0594C42.7481 34.0658 40.6041 36.5368 37.9087 36.5368Z" fill="#FBFBFB"/>
<path d="M385.163 39.7295C383.231 39.7295 381.425 39.5072 379.745 39.0625C378.083 38.6179 376.635 38.0089 375.398 37.2355V31.9865C376.693 32.7985 378.112 33.4365 379.658 33.9005C381.203 34.3645 382.768 34.5965 384.352 34.5965C385.511 34.5965 386.361 34.4902 386.902 34.2775C387.462 34.0649 387.742 33.7362 387.742 33.2915C387.742 32.8855 387.549 32.5762 387.162 32.3635C386.795 32.1315 386.11 31.9189 385.105 31.7255L382.208 31.2035C379.812 30.7782 378.054 30.0435 376.934 28.9995C375.814 27.9362 375.253 26.5442 375.253 24.8235C375.253 22.8322 376.132 21.2469 377.89 20.0675C379.648 18.8689 382.227 18.2695 385.627 18.2695C387.578 18.2695 389.258 18.4629 390.668 18.8495C392.079 19.2362 393.238 19.7099 394.145 20.2705V25.3165C393.296 24.8332 392.204 24.4175 390.871 24.0695C389.538 23.7215 388.099 23.5475 386.554 23.5475C384.062 23.5475 382.816 23.9535 382.816 24.7655C382.816 25.0942 382.98 25.3455 383.309 25.5195C383.637 25.6742 384.265 25.8289 385.192 25.9835L388.437 26.5055C390.813 26.8922 392.561 27.5882 393.682 28.5935C394.802 29.5795 395.362 30.9812 395.362 32.7985C395.362 34.1905 394.937 35.4085 394.088 36.4525C393.238 37.4965 392.04 38.3085 390.495 38.8885C388.969 39.4492 387.191 39.7295 385.163 39.7295Z" fill="#EFEFF1"/>
<path d="M363.671 39.7295C360.908 39.7295 358.532 39.2752 356.543 38.3665C354.553 37.4385 353.037 36.1722 351.993 34.5675C350.95 32.9629 350.429 31.1455 350.429 29.1155C350.429 27.0469 350.96 25.1909 352.022 23.5475C353.085 21.9042 354.621 20.6185 356.63 19.6905C358.658 18.7432 361.072 18.2695 363.873 18.2695C365.593 18.2695 367.157 18.4435 368.567 18.7915C369.997 19.1202 371.349 19.6035 372.624 20.2415V26.2445C371.793 25.6645 370.76 25.2005 369.524 24.8525C368.307 24.4852 367.003 24.3015 365.612 24.3015C363.333 24.3015 361.546 24.7269 360.251 25.5775C358.977 26.4089 358.339 27.5302 358.339 28.9415C358.339 30.3722 358.986 31.5129 360.28 32.3635C361.575 33.2142 363.352 33.6395 365.612 33.6395C367.041 33.6395 368.374 33.4462 369.611 33.0595C370.847 32.6729 371.871 32.1605 372.682 31.5225V37.3805C371.291 38.1925 369.891 38.7822 368.481 39.1495C367.07 39.5362 365.467 39.7295 363.671 39.7295Z" fill="#EFEFF1"/>
<path d="M335.374 39.7295C332.727 39.7295 330.399 39.2559 328.39 38.3085C326.401 37.3419 324.865 36.0369 323.783 34.3935C322.702 32.7309 322.161 30.8942 322.161 28.8835C322.161 26.8342 322.702 25.0072 323.783 23.4025C324.865 21.7785 326.401 20.5219 328.39 19.6325C330.399 18.7239 332.737 18.2695 335.403 18.2695C338.049 18.2695 340.367 18.7239 342.357 19.6325C344.346 20.5412 345.882 21.7979 346.964 23.4025C348.046 25.0072 348.586 26.8342 348.586 28.8835C348.586 30.9135 348.036 32.7502 346.935 34.3935C345.853 36.0369 344.308 37.3419 342.299 38.3085C340.309 39.2559 338.001 39.7295 335.374 39.7295ZM335.374 33.8425C337.015 33.8425 338.329 33.3979 339.314 32.5085C340.299 31.5999 340.792 30.4109 340.792 28.9415C340.792 27.4915 340.299 26.3315 339.314 25.4615C338.329 24.5915 337.015 24.1565 335.374 24.1565C333.712 24.1565 332.389 24.5915 331.404 25.4615C330.419 26.3315 329.926 27.4915 329.926 28.9415C329.926 30.4109 330.419 31.5999 331.404 32.5085C332.389 33.3979 333.712 33.8425 335.374 33.8425Z" fill="#EFEFF1"/>
<path d="M296.435 18.8496H307.736C310.459 18.8496 312.758 19.2749 314.632 20.1256C316.525 20.9763 317.935 22.1653 318.862 23.6926C319.809 25.2006 320.282 26.9309 320.282 28.8836C320.282 30.7976 319.789 32.5376 318.804 34.1036C317.838 35.6503 316.351 36.8779 314.342 37.7866C312.352 38.6953 309.88 39.1496 306.924 39.1496H296.435V18.8496ZM306.808 33.9876C308.643 33.9876 310.054 33.5333 311.039 32.6246C312.024 31.6966 312.517 30.4399 312.517 28.8546C312.517 27.3853 312.072 26.2156 311.184 25.3456C310.314 24.4563 308.991 24.0116 307.214 24.0116H303.679V33.9876H306.808Z" fill="#EFEFF1"/>
<path d="M263.809 18.8496H277.224C279.967 18.8496 282.102 19.4393 283.628 20.6186C285.154 21.7979 285.917 23.4509 285.917 25.5776C285.917 27.3756 285.357 28.8353 284.236 29.9566C283.135 31.0586 281.648 31.6579 279.774 31.7546L286.12 39.1496H277.601L271.052 30.8266V39.1496H263.809V18.8496ZM275.428 28.6806C276.49 28.6806 277.302 28.4776 277.862 28.0716C278.422 27.6463 278.702 27.0373 278.702 26.2446C278.702 24.7173 277.678 23.9536 275.631 23.9536H271.052V28.6806H275.428Z" fill="#EFEFF1"/>
<path d="M260.488 33.9876V39.1496H241.596V18.8496H260.401V24.0116H248.84V26.4186H259.822V31.3486H248.84V33.9876H260.488Z" fill="#EFEFF1"/>
<path d="M217.091 18.8496H231.115C233.723 18.8496 235.712 19.5166 237.084 20.8506C238.475 22.1846 239.17 24.0019 239.17 26.3026C239.17 27.7913 238.823 29.1059 238.127 30.2466C237.432 31.3873 236.389 32.2766 234.998 32.9146C233.626 33.5526 231.956 33.8716 229.985 33.8716H224.335V39.1496H217.091V18.8496ZM228.102 29.2606C229.28 29.2606 230.178 29.0189 230.797 28.5356C231.434 28.0523 231.752 27.3756 231.752 26.5056C231.752 25.6743 231.472 25.0266 230.912 24.5626C230.352 24.0793 229.55 23.8376 228.507 23.8376H224.335V29.2606H228.102Z" fill="#EFEFF1"/>
<path d="M201.05 39.7295C198.404 39.7295 196.076 39.2559 194.067 38.3085C192.078 37.3419 190.542 36.0369 189.46 34.3935C188.378 32.7309 187.837 30.8942 187.837 28.8835C187.837 26.8342 188.378 25.0072 189.46 23.4025C190.542 21.7785 192.078 20.5219 194.067 19.6325C196.076 18.7239 198.414 18.2695 201.079 18.2695C203.726 18.2695 206.044 18.7239 208.033 19.6325C210.023 20.5412 211.559 21.7979 212.641 23.4025C213.722 25.0072 214.263 26.8342 214.263 28.8835C214.263 30.9135 213.713 32.7502 212.612 34.3935C211.53 36.0369 209.984 37.3419 207.975 38.3085C205.986 39.2559 203.677 39.7295 201.05 39.7295ZM201.05 33.8425C202.692 33.8425 204.006 33.3979 204.991 32.5085C205.976 31.5999 206.469 30.4109 206.469 28.9415C206.469 27.4915 205.976 26.3315 204.991 25.4615C204.006 24.5915 202.692 24.1565 201.05 24.1565C199.389 24.1565 198.066 24.5915 197.081 25.4615C196.095 26.3315 195.603 27.4915 195.603 28.9415C195.603 30.4109 196.095 31.5999 197.081 32.5085C198.066 33.3979 199.389 33.8425 201.05 33.8425Z" fill="#EFEFF1"/>
<path d="M168.364 18.8496H175.608V33.4366H186.996V39.1496H168.364V18.8496Z" fill="#EFEFF1"/>
<path d="M165.043 33.9876V39.1496H146.151V18.8496H164.957V24.0116H153.395V26.4186H164.377V31.3486H153.395V33.9876H165.043Z" fill="#EFEFF1"/>
<path d="M119.364 18.8496H127.13L131.737 31.8706L136.489 18.8496H144.312L135.938 39.1496H127.709L119.364 18.8496Z" fill="#EFEFF1"/>
<path d="M118.043 33.9876V39.1496H99.1509V18.8496H117.956V24.0116H106.395V26.4186H117.377V31.3486H106.395V33.9876H118.043Z" fill="#EFEFF1"/>
<path d="M72.439 18.8496H83.7395C86.4632 18.8496 88.7619 19.2749 90.6356 20.1256C92.5287 20.9763 93.9389 22.1653 94.8661 23.6926C95.8126 25.2006 96.2859 26.9309 96.2859 28.8836C96.2859 30.7976 95.7933 32.5376 94.8081 34.1036C93.8423 35.6503 92.3549 36.8779 90.3459 37.7866C88.3562 38.6953 85.8837 39.1496 82.9281 39.1496H72.439V18.8496ZM82.8122 33.9876C84.6474 33.9876 86.0575 33.5333 87.0427 32.6246C88.0278 31.6966 88.5204 30.4399 88.5204 28.8546C88.5204 27.3853 88.0761 26.2156 87.1876 25.3456C86.3183 24.4563 84.9951 24.0116 83.2179 24.0116H79.6829V33.9876H82.8122Z" fill="#EFEFF1"/>
</svg>
