<svg width="111" height="36" viewBox="0 0 111 36" fill="none" xmlns="http://www.w3.org/2000/svg">
<path d="M33.6393 5.52655C31.0526 4.34348 28.3055 3.48124 25.4381 3C25.077 3.62161 24.6761 4.46379 24.3953 5.12552C21.3454 4.68436 18.3175 4.68436 15.3097 5.12552C15.029 4.46379 14.6078 3.62161 14.2669 3C11.3795 3.48124 8.63232 4.34348 6.06366 5.52655C0.870175 13.1865 -0.533478 20.6658 0.168348 28.045C3.6173 30.5514 6.94592 32.0755 10.2165 33.0782C11.0186 31.9953 11.7405 30.8322 12.3621 29.6091C11.179 29.1679 10.0561 28.6265 8.97325 27.9847C9.25392 27.7843 9.53472 27.5638 9.79539 27.3433C16.3323 30.331 23.4127 30.331 29.8695 27.3433C30.1502 27.5638 30.4109 27.7843 30.6917 27.9847C29.6087 28.6265 28.4859 29.1679 27.3029 29.6091C27.9245 30.8322 28.6463 31.9953 29.4483 33.0782C32.7169 32.0755 36.0657 30.5514 39.4965 28.045C40.3586 19.5029 38.131 12.0837 33.6393 5.52655ZM13.2643 23.4931C11.2993 23.4931 9.69512 21.7086 9.69512 19.5229C9.69512 17.3373 11.2591 15.5526 13.2643 15.5526C15.2495 15.5526 16.8737 17.3373 16.8335 19.5229C16.8335 21.7086 15.2495 23.4931 13.2643 23.4931ZM26.4407 23.4931C24.4755 23.4931 22.8693 21.7086 22.8693 19.5229C22.8693 17.3373 24.4354 15.5526 26.4407 15.5526C28.4258 15.5526 30.0499 17.3373 30.0098 19.5229C30.0098 21.7086 28.4458 23.4931 26.4407 23.4931Z" fill="black"/>
<path d="M45.9698 29.3442C48.2888 29.3442 50.0223 27.9153 50.0223 26.1115C50.0223 24.3077 48.2888 22.9022 45.9698 22.9022C43.6272 22.9022 41.9171 24.3077 41.9171 26.1115C41.9171 27.9153 43.6272 29.3442 45.9698 29.3442ZM63.4631 18.4747C62.5963 15.6403 60.7926 14.3285 57.7942 14.3285C53.601 14.3285 50.9774 17.6081 50.9774 21.8011C50.9774 26.2051 53.3432 29.3442 57.4194 29.3442C60.4881 29.3442 62.5495 28.1026 63.4631 25.1979V28.8289H70.7719V11.9625H63.4631V18.4747ZM61.0269 24.2609C59.5277 24.2609 58.5438 23.3005 58.5438 21.8246C58.5438 20.3722 59.5277 19.4353 61.0503 19.4353C62.573 19.4353 63.4866 20.3722 63.4866 21.8011C63.4866 23.2535 62.5495 24.2609 61.0269 24.2609ZM89.7731 21.5903C89.7731 17.2801 87.1963 14.3285 81.293 14.3285C75.5773 14.3285 72.2509 17.3738 72.2509 21.6841C72.2509 26.2051 75.8583 29.3442 82.1833 29.3442C85.1114 29.3442 87.7351 28.6414 89.3046 27.7278V23.3005C87.9927 24.0266 86.3998 24.5186 84.2915 24.5186C81.621 24.5186 80.0749 23.8861 79.3487 22.8554H89.7731V21.5903ZM81.6678 18.709C83.1671 18.709 84.0104 19.365 84.1978 20.4191H79.091C79.3019 19.365 80.192 18.709 81.6678 18.709ZM99.4952 22.0354L96.8715 14.961H89.2114L95.6534 28.8289H103.29L109.732 14.961H102.096L99.4952 22.0354Z" fill="black"/>
</svg>
